<svg width="115" height="62" viewBox="0 0 115 62" fill="none" xmlns="http://www.w3.org/2000/svg">
<mask id="mask0_0_2345" style="mask-type:luminance" maskUnits="userSpaceOnUse" x="0" y="31" width="97" height="31">
<path fill-rule="evenodd" clip-rule="evenodd" d="M0.562866 31.9429H96.3346V61.7102H0.562866V31.9429Z" fill="white"/>
</mask>
<g mask="url(#mask0_0_2345)">
<path fill-rule="evenodd" clip-rule="evenodd" d="M78.8685 50.2558L81.7608 42.6577H81.777L84.6707 50.2558H78.8685ZM56.9153 54.6109C55.4942 54.6109 54.7522 54.3638 54.7522 54.3638V38.9818C55.2822 38.9465 55.903 38.7963 57.0391 38.7963C58.2133 38.7963 64.0244 39.0435 64.0244 46.5799C64.0244 54.1166 58.3368 54.6109 56.9153 54.6109ZM31.9252 54.2966C27.5081 54.2966 23.9263 50.9521 23.9263 46.8267C23.9263 42.7016 27.5081 39.3572 31.9252 39.3572C36.3422 39.3572 39.9237 42.7016 39.9237 46.8267C39.9237 50.9521 36.3422 54.2966 31.9252 54.2966ZM85.4873 32.5203H78.0527L71.7665 48.8539C71.8745 47.9945 71.9328 47.0751 71.9328 46.0857C71.9328 32.8354 59.1378 32.5203 59.1378 32.5203H46.7143V42.7286C44.9073 36.3697 38.9727 31.9434 31.9256 31.9434C26.8019 31.9434 22.2679 34.2834 19.4777 38.0043V32.5203H0.563232V39.0433H6.26561V60.7077H13.7757V39.0433H18.7636C17.3709 41.2819 16.5689 43.9335 16.5689 46.8269C16.5689 55.3032 23.4444 61.7107 31.9256 61.7107C38.9727 61.7107 44.9073 57.2843 46.7143 50.9262V60.7077H60.066C60.066 60.7077 65.507 60.5126 69.0206 55.9734L67.2053 60.7077H74.9003L76.717 55.9076H86.8223L88.6386 60.7077H96.335L85.4873 32.5203Z" fill="white"/>
</g>
<mask id="mask1_0_2345" style="mask-type:luminance" maskUnits="userSpaceOnUse" x="86" y="32" width="29" height="29">
<path fill-rule="evenodd" clip-rule="evenodd" d="M86.9573 32.52H114.958V60.7077H86.9573V32.52Z" fill="white"/>
</mask>
<g mask="url(#mask1_0_2345)">
<path fill-rule="evenodd" clip-rule="evenodd" d="M105.964 32.52L100.958 39.97L95.9503 32.52H86.9573L96.7855 47.1978V60.7077H105.13V47.1978L114.958 32.52H105.964Z" fill="white"/>
</g>
<path fill-rule="evenodd" clip-rule="evenodd" d="M92.7772 19.2126L95.6709 12.0776L98.3012 19.2126H92.7772ZM99.5808 1.72041H91.6824L84.7221 19.5487C84.5808 14.1713 79.3508 12.6763 76.4766 11.893C72.397 10.7809 72.6756 9.57629 72.6756 9.11315C72.6756 8.64967 73.1397 6.98154 75.4571 6.98154C77.7749 6.98154 80.7417 9.11315 80.7417 9.11315L83.8018 3.46052C83.8018 3.46052 80.1864 0.680664 74.6219 0.680664C70.6353 0.680664 64.6081 2.25623 64.6081 10.4103C64.6081 10.4103 63.7742 17.2673 73.5095 18.2861C73.5095 18.2861 77.0333 18.7499 76.384 21.4372C75.7353 24.1242 73.2313 23.5685 72.6756 23.5685C72.1189 23.5685 70.0796 23.5685 66.4631 20.6957L63.1262 26.5335C63.1262 26.5335 66.9272 30.518 74.0662 30.518C77.3019 30.518 79.7909 29.4505 81.5502 27.7679L80.6491 30.1011H88.7163L90.5329 25.3288H100.453L102.269 30.1011H110.243L99.5808 1.72041Z" fill="white"/>
<path fill-rule="evenodd" clip-rule="evenodd" d="M51.674 30.6107C51.6583 30.6107 51.6432 30.6104 51.6271 30.61C51.6116 30.6104 51.5965 30.6107 51.5811 30.6107H51.674Z" fill="white"/>
<path fill-rule="evenodd" clip-rule="evenodd" d="M18.1084 3.2749H18.7159C18.7358 3.53784 18.7948 3.83883 18.9272 4.14599H18.2508C18.1701 3.86214 18.1111 3.55944 18.1084 3.2749Z" fill="white"/>
<path fill-rule="evenodd" clip-rule="evenodd" d="M18.9926 5.99951H20.613C20.7005 6.19937 20.7944 6.47911 20.8877 6.87025H19.4999C19.3328 6.6536 19.162 6.36872 18.9926 5.99951Z" fill="white"/>
<path fill-rule="evenodd" clip-rule="evenodd" d="M25.3532 28.9465C25.1851 28.7731 24.9498 28.6644 24.6888 28.6644H21.8362C21.8266 28.4049 21.8355 28.1114 21.8767 27.7936H29.1192C29.3796 27.7936 29.6142 27.6857 29.7826 27.5129H42.4428C43.0075 28.0309 43.664 28.5183 44.43 28.9465H25.3532ZM19.8104 19.6202H34.2533C34.5225 19.6202 34.7623 19.5044 34.9318 19.3213H39.0676V20.7546H33.807C33.6399 20.5917 33.4125 20.4913 33.1611 20.4913H22.7329C22.0036 20.2986 21.0696 20.1639 20.0752 20.1392C20.0752 20.1392 20.0138 19.9154 19.8104 19.6202ZM17.4717 17.7669C17.1389 17.5064 16.81 17.2178 16.5026 16.8962H34.3208C34.5922 16.8962 34.8343 16.7772 35.0041 16.5908H39.0621V18.0244H34.8868C34.7201 17.8657 34.4961 17.7669 34.2478 17.7669H17.4717ZM15.5041 15.0431C15.3668 14.8172 15.2193 14.5025 15.1967 14.1724H17.722C17.9549 14.4178 18.1508 14.7106 18.2822 15.0431H15.5041ZM20.0291 14.1722H34.2508C34.5255 14.1722 34.7698 14.0505 34.9392 13.8613H39.0651V15.2939H34.9543C34.789 15.1396 34.5681 15.0429 34.3238 15.0429H19.8267C19.8466 14.7893 19.9015 14.4763 20.0291 14.1722ZM24.6884 3.2751C24.9748 3.2751 25.2276 3.14278 25.3978 2.93915H39.0651V4.37244H29.7202C29.5579 4.23326 29.3497 4.14619 29.1188 4.14619H20.8404C20.7937 3.9837 20.7179 3.66522 20.6987 3.2751H24.6884ZM23.0447 11.4478H33.1556C33.4331 11.4478 33.6791 11.3237 33.8492 11.1307H39.0621V12.5637H34.8717C34.7067 12.4132 34.4896 12.3189 34.2478 12.3189H22.2421C22.5319 12.0656 22.8046 11.7773 23.0447 11.4478ZM39.0674 8.40021V9.83316H33.7767C33.6127 9.68644 33.3983 9.59456 33.1609 9.59456H24.0187L24.6002 8.72314H31.6976C31.9779 8.72314 32.2255 8.59664 32.3957 8.40021H39.0674ZM32.3052 7.10263C32.1423 6.95968 31.931 6.86986 31.6967 6.86986H22.2238C22.1525 6.64258 22.0732 6.34982 22.0046 5.99912H29.1202C29.4036 5.99912 29.654 5.86954 29.8241 5.66968H39.0665V7.10263H32.3052ZM39.7087 23.4851H32.3474C32.1797 23.3185 31.9488 23.216 31.6943 23.216H23.3678C23.4526 22.9685 23.5699 22.6514 23.7071 22.3446H33.1577C33.4238 22.3446 33.6619 22.2315 33.831 22.0518H39.2535C39.3506 22.4502 39.4953 22.9414 39.7087 23.4851ZM41.2507 26.2153H29.7791C29.611 26.0453 29.3777 25.9397 29.1198 25.9397H22.4631C22.6103 25.6545 22.7914 25.3631 23.0082 25.0686H31.6962C31.9593 25.0686 32.1953 24.9579 32.3641 24.7823H40.3156C40.5719 25.2523 40.8803 25.7361 41.2507 26.2153ZM56.357 1.72032V19.491C56.357 19.491 56.3096 23.6318 51.6281 23.6592C46.9465 23.6318 46.8992 19.491 46.8992 19.491V1.72032H25.282C25.1208 1.58491 24.916 1.42139 24.6882 1.42139H15.602C15.0902 1.42139 14.6751 1.83619 14.6751 2.34835C14.6751 2.51838 14.7242 2.67573 14.8041 2.81286C14.5715 3.10185 14.3472 3.35587 14.2004 3.46043C14.0831 3.54442 13.6539 3.77959 13.0934 4.14605H11.5039C10.9921 4.14605 10.577 4.56086 10.577 5.07267C10.577 5.38703 10.7345 5.66437 10.9746 5.83166C10.6549 6.15082 10.3524 6.49774 10.0872 6.87004H8.982C8.47021 6.87004 8.05481 7.28518 8.05481 7.797C8.05481 8.30848 8.47021 8.72328 8.982 8.72328H9.22863C9.16723 8.99924 9.13224 9.28343 9.13224 9.57585L9.13773 9.5947H7.57253C7.06074 9.5947 6.64568 10.0095 6.64568 10.5213C6.64568 11.0331 7.06074 11.4479 7.57253 11.4479H9.68108L9.35418 12.319H6.44159C5.92946 12.319 5.5144 12.7342 5.5144 13.2453C5.5144 13.7575 5.92946 14.1723 6.44159 14.1723H10.4903C10.7194 14.4925 10.9527 14.801 11.1588 15.043H6.23749C5.7257 15.043 5.3103 15.4578 5.3103 15.9696C5.3103 16.4818 5.7257 16.8966 6.23749 16.8966H12.6475C12.9525 17.1338 13.3613 17.3542 13.9534 17.5452C14.1575 17.6107 14.34 17.6857 14.5039 17.7673H6.44159C5.92946 17.7673 5.5144 18.1821 5.5144 18.694C5.5144 19.2058 5.92946 19.6206 6.44159 19.6206H15.7992C15.8266 19.9048 15.816 20.1979 15.7862 20.4917H7.57253C7.06074 20.4917 6.64568 20.9065 6.64568 21.4186C6.64568 21.9298 7.06074 22.3449 7.57253 22.3449H15.5656C15.5625 22.6325 15.5906 22.9222 15.6726 23.2163H8.982C8.47021 23.2163 8.05481 23.6311 8.05481 24.1426C8.05481 24.6544 8.47021 25.0692 8.982 25.0692H16.9627C17.2172 25.3455 17.4481 25.6397 17.657 25.9403H11.5039C10.9921 25.9403 10.577 26.3551 10.577 26.8669C10.577 27.3788 10.9921 27.7936 11.5039 27.7936H18.7118C18.8685 28.1189 19.002 28.4151 19.1186 28.6643H15.602C15.0902 28.6643 14.6751 29.0794 14.6751 29.5909C14.6751 30.1027 15.0902 30.5175 15.602 30.5175H24.6882C24.9458 30.5175 25.1784 30.413 25.3465 30.2436H47.9653C49.0499 30.4743 50.2646 30.607 51.6281 30.6098C63.3597 30.584 64.3308 20.8808 64.3308 20.8808V1.72032H56.357Z" fill="white"/>
</svg>
