<svg width="46" height="111" viewBox="0 0 46 111" fill="none" xmlns="http://www.w3.org/2000/svg">
<mask id="mask0_0_2227" style="mask-type:luminance" maskUnits="userSpaceOnUse" x="-1" y="-1" width="42" height="109">
<path fill-rule="evenodd" clip-rule="evenodd" d="M40.8147 -0.000488281H-0.00416946V107.756H40.8147V-0.000488281Z" fill="white"/>
</mask>
<g mask="url(#mask0_0_2227)">
<path fill-rule="evenodd" clip-rule="evenodd" d="M35.9029 87.0719C33.5255 92.2672 32.8655 98.0838 37.7787 102.02C41.7464 97.0068 41.4429 88.3142 39.068 82.4661C37.8305 83.8951 36.7591 85.3815 35.9029 87.0719ZM35.1387 14.2594C30.347 14.2064 25.4207 15.678 24.0809 20.8184C28.452 22.0421 33.4368 20.4552 36.9856 17.8265C38.0404 17.0448 39.007 16.1545 39.8706 15.1657C38.3408 14.6602 36.7493 14.3414 35.1387 14.2594ZM29.7639 78.1177C26.7938 82.44 25.2097 87.4059 28.4537 92.0623C28.5173 92.1837 28.9404 92.6196 29.0589 92.7361C33.7488 88.4225 34.9807 80.2292 33.5669 74.1875C32.1481 75.3391 30.8533 76.6479 29.7639 78.1177ZM22.3626 82.031C27.6614 78.697 30.0943 70.9174 29.6711 64.6593C23.6123 68.0852 18.2105 75.4043 22.3626 82.031ZM23.02 56.7894C19.0252 59.7357 15.3099 64.8859 17.8057 70.0208C23.4018 67.691 27.1468 60.3547 27.7081 54.4628C26.0561 55.0398 24.469 55.8061 23.02 56.7894ZM22.8694 45.5792C18.2343 47.9046 14.4234 51.6917 15.6855 57.2649C21.5364 55.9487 26.2991 49.7788 27.7654 44.1168C26.0802 44.3979 24.4264 44.8739 22.8694 45.5792ZM16.1017 44.5803C21.9761 44.2702 27.4612 39.3154 29.8287 33.9081C23.6354 33.9112 15.636 37.215 16.1017 44.5803ZM28.9773 23.9873C24.1485 24.6852 19.4579 26.9317 18.9385 32.3156C23.5008 32.8261 28.287 30.4069 31.4262 27.2295C32.3503 26.293 33.1725 25.2635 33.8733 24.1501C32.2565 23.8875 30.6076 23.8172 28.9773 23.9873ZM18.9937 99.9102C24.4079 99.5933 31.5801 100.417 35.478 104.64C30.8695 109.365 23.4715 108.075 18.3282 105.009C16.3949 103.847 14.6634 102.44 13.1071 100.805C15.0693 100.329 16.9797 100.032 18.9937 99.9102ZM24.473 5.17133C24.9517 9.67115 24.7512 15.8528 21.1247 19.1344C15.874 13.9984 18.6203 5.06097 23.5403 -0.000488281C23.9771 1.6955 24.288 3.43033 24.473 5.17133ZM11.6351 87.0289C17.0295 87.9734 22.3061 89.5609 25.7895 94.0508C25.9745 94.3134 26.1423 94.5755 26.3039 94.8529C25.1591 95.5736 24.1937 95.9533 22.8693 96.2308C15.8457 97.5328 9.26818 92.3826 5.79342 86.622C7.74577 86.5844 9.70676 86.7311 11.6351 87.0289ZM19.2586 83.5703C12.2573 86.1609 5.48293 80.1525 2.49981 74.0084C2.03654 73.0393 1.66335 72.1226 1.31729 71.106C2.3092 71.3193 6.26264 72.4166 6.88196 72.8346C12.1006 75.0676 17.1995 77.9824 19.2586 83.5703ZM4.91726 57.9597C9.2513 61.0194 13.9592 65.2689 14.473 70.9185C6.0751 71.9678 0.757782 62.3276 -0.0028038 55.1935C1.70959 55.9734 3.35784 56.908 4.91726 57.9597ZM5.89869 43.3793C9.31053 46.9229 13.0382 52.2865 12.2499 57.4873C6.30643 56.8893 2.82982 50.9851 1.9255 45.6067C1.59919 43.6641 1.55169 41.6735 1.76882 39.7161C3.24003 40.8208 4.62241 42.0538 5.89869 43.3793ZM12.7011 44.1333C6.44059 42.0323 4.59803 34.368 5.59796 28.3817C5.79844 27.2233 6.05258 26.2129 6.42455 25.0983C10.6636 30.0518 14.9014 37.6823 12.7011 44.1333ZM15.8589 16.6176C17.3671 20.9781 18.5435 27.1406 15.6991 31.2274C9.31403 27.3348 10.0105 17.8617 13.7486 11.7312C14.574 13.3014 15.279 14.9413 15.8589 16.6176ZM37.1806 4.99048C35.1419 8.80969 31.8553 12.5309 27.2572 12.8946C26.2598 8.03352 30.3767 3.80433 34.4954 2.02327C35.9247 1.40492 37.444 1.00358 38.9905 0.828491C38.492 2.25692 37.8931 3.65576 37.1806 4.99048Z" fill="white"/>
</g>
<mask id="mask1_0_2227" style="mask-type:luminance" maskUnits="userSpaceOnUse" x="13" y="12" width="33" height="99">
<path fill-rule="evenodd" clip-rule="evenodd" d="M45.8719 12.9482H13.2466V110.618H45.8719V12.9482Z" fill="white"/>
</mask>
<g mask="url(#mask1_0_2227)">
<path fill-rule="evenodd" clip-rule="evenodd" d="M27.2095 12.9482C22.6861 19.3444 19.9158 24.8442 17.4755 32.286C13.5356 45.7657 13.3339 56.5637 16.7754 70.184C19.3156 78.9149 22.4128 85.2205 27.7931 92.55C33.2535 99.5794 38.3611 104.232 45.8719 109.011C45.5388 109.546 45.2045 110.083 44.8714 110.618C37.1884 105.654 31.9803 100.838 26.4391 93.5617C21.0064 86.004 17.9098 79.5166 15.4349 70.5429C12.1372 56.6605 12.5277 45.6776 16.871 32.0881C19.5161 24.6691 22.4523 19.2285 27.2095 12.9482Z" fill="white"/>
</g>
</svg>
