<svg width="17" height="16" viewBox="0 0 17 16" fill="none" xmlns="http://www.w3.org/2000/svg">
<path d="M3.61426 15.8311C3.46289 15.7188 3.37012 15.5674 3.33594 15.377C3.30664 15.1865 3.33838 14.9595 3.43115 14.6958L4.96191 10.1401L1.05078 7.32764C0.821289 7.1665 0.662598 7.00049 0.574707 6.82959C0.486816 6.65869 0.472168 6.48291 0.530762 6.30225C0.589355 6.12646 0.704102 5.99463 0.875 5.90674C1.0459 5.81885 1.27295 5.77734 1.55615 5.78223L6.35352 5.81152L7.81104 1.23389C7.89893 0.965332 8.00879 0.762695 8.14062 0.625977C8.27734 0.489258 8.43848 0.420898 8.62402 0.420898C8.81445 0.420898 8.97559 0.489258 9.10742 0.625977C9.24414 0.762695 9.35645 0.965332 9.44434 1.23389L10.9019 5.81152L15.6992 5.78223C15.9824 5.77734 16.2095 5.81885 16.3804 5.90674C16.5513 5.99463 16.666 6.12646 16.7246 6.30225C16.7832 6.48291 16.7686 6.65869 16.6807 6.82959C16.5928 7.00049 16.4341 7.1665 16.2046 7.32764L12.2935 10.1401L13.8242 14.6958C13.917 14.9595 13.9463 15.1865 13.9121 15.377C13.8828 15.5674 13.7925 15.7188 13.6411 15.8311C13.4897 15.9482 13.3188 15.9873 13.1284 15.9482C12.938 15.9141 12.7305 15.8164 12.5059 15.6553L8.62402 12.8062L4.74951 15.6553C4.5249 15.8164 4.31738 15.9141 4.12695 15.9482C3.93652 15.9873 3.76562 15.9482 3.61426 15.8311Z" fill="#171E28"/>
</svg>
