<svg width="16" height="19" viewBox="0 0 16 19" fill="none" xmlns="http://www.w3.org/2000/svg">
<path d="M6.22957 17.4983C5.52091 17.6063 4.7821 17.6941 3.99902 17.7648C4.47227 18.5039 5.34241 19 6.33852 19C7.64883 19 8.74173 18.142 8.99902 17C8.08219 17.1994 7.1571 17.366 6.22957 17.4983Z" fill="#171E28"/>
<path d="M5.02489 1.60253C5.42428 1.50802 5.83326 1.46055 6.24093 1.46055C6.53579 1.46055 6.82674 1.48537 7.11158 1.53328C6.73571 0.59991 5.72481 0.0546083 4.71522 0.293287C3.70475 0.531965 3.04447 1.47318 3.12766 2.47711C3.68254 2.07074 4.32323 1.76848 5.02489 1.60253Z" fill="#171E28"/>
<path d="M15.1568 11.5368C15.0009 10.9165 14.5362 10.4531 13.966 10.2724C13.2831 10.0559 12.7273 9.55285 12.4238 8.90388L10.503 4.80062C9.58401 2.77839 7.35315 1.66688 5.16541 2.18387C2.97767 2.70086 1.47983 4.69304 1.56346 6.91257L1.68192 11.4292C1.70065 12.1491 1.43192 12.8534 0.915366 13.3552C0.480693 13.7776 0.272503 14.4109 0.42233 15.0438C0.630085 15.9231 1.46502 16.4741 2.34047 16.3861C2.37793 16.3822 2.41495 16.3787 2.4524 16.3761C3.55346 16.3094 4.67673 16.2023 5.82918 16.0124C7.50211 15.7546 9.15195 15.3643 10.7626 14.8447C11.8671 14.5002 12.9364 14.0899 13.9434 13.6609C13.9782 13.6461 14.0131 13.633 14.0483 13.6195C14.8824 13.3029 15.3794 12.4222 15.1568 11.5359V11.5368Z" fill="#171E28"/>
</svg>
