<svg width="20" height="13" viewBox="0 0 20 13" fill="none" xmlns="http://www.w3.org/2000/svg">
<path d="M1.10156 10.4141C0.789062 10.4141 0.526042 10.3073 0.3125 10.0938C0.0989583 9.88021 -0.0078125 9.61979 -0.0078125 9.3125V3.40625C-0.0078125 3.09375 0.0989583 2.83073 0.3125 2.61719C0.526042 2.39844 0.789062 2.28906 1.10156 2.28906C1.41927 2.28906 1.6849 2.39844 1.89844 2.61719C2.11198 2.83073 2.21875 3.09375 2.21875 3.40625V9.3125C2.21875 9.61979 2.11198 9.88021 1.89844 10.0938C1.6849 10.3073 1.41927 10.4141 1.10156 10.4141ZM4.8125 12.1406C4.29688 12.1406 3.875 11.9844 3.54688 11.6719C3.21875 11.3594 3.05469 10.9557 3.05469 10.4609V2.26562C3.05469 1.76562 3.21875 1.35938 3.54688 1.04688C3.875 0.734375 4.29688 0.578125 4.8125 0.578125C5.33333 0.578125 5.75781 0.734375 6.08594 1.04688C6.41406 1.35938 6.57812 1.76562 6.57812 2.26562V10.4609C6.57812 10.9557 6.41406 11.3594 6.08594 11.6719C5.75781 11.9844 5.33333 12.1406 4.8125 12.1406ZM7.48438 7.86719V4.85156H12.3359V7.86719H7.48438ZM15.0078 12.1406C14.4922 12.1406 14.0703 11.9844 13.7422 11.6719C13.4141 11.3594 13.25 10.9557 13.25 10.4609V2.26562C13.25 1.76562 13.4141 1.35938 13.7422 1.04688C14.0703 0.734375 14.4922 0.578125 15.0078 0.578125C15.5286 0.578125 15.9531 0.734375 16.2812 1.04688C16.6094 1.35938 16.7734 1.76562 16.7734 2.26562V10.4609C16.7734 10.9557 16.6094 11.3594 16.2812 11.6719C15.9531 11.9844 15.5286 12.1406 15.0078 12.1406ZM18.6406 10.4141C18.3281 10.4141 18.0651 10.3073 17.8516 10.0938C17.638 9.88021 17.5312 9.61979 17.5312 9.3125V3.40625C17.5312 3.09375 17.638 2.83073 17.8516 2.61719C18.0651 2.39844 18.3281 2.28906 18.6406 2.28906C18.9531 2.28906 19.2161 2.39844 19.4297 2.61719C19.6484 2.83073 19.7578 3.09375 19.7578 3.40625V9.3125C19.7578 9.61979 19.6484 9.88021 19.4297 10.0938C19.2161 10.3073 18.9531 10.4141 18.6406 10.4141Z" fill="#171E28"/>
</svg>
