<svg width="59" height="59" viewBox="0 0 59 59" fill="none" xmlns="http://www.w3.org/2000/svg">
<mask id="mask0_0_2161" style="mask-type:luminance" maskUnits="userSpaceOnUse" x="0" y="0" width="59" height="59">
<rect x="0.623169" y="0.539551" width="57.64" height="57.64" fill="white"/>
</mask>
<g mask="url(#mask0_0_2161)">
<path d="M18.3347 27.1143C18.9135 27.1143 19.3826 27.5833 19.3826 28.1621V44.0312C19.3826 44.61 18.9135 45.0801 18.3347 45.0801H13.7234C13.1447 45.08 12.6755 44.61 12.6755 44.0312V28.1621C12.6755 27.5834 13.1447 27.1143 13.7234 27.1143H18.3347ZM36.2205 18.1309C36.7991 18.1309 37.2681 18.6002 37.2683 19.1787V44.0312C37.2683 44.61 36.7992 45.08 36.2205 45.0801H31.6091C31.0303 45.0801 30.5613 44.61 30.5613 44.0312V19.1787C30.5615 18.6001 31.0305 18.1309 31.6091 18.1309H36.2205ZM45.1648 13.6396C45.7435 13.6396 46.2135 14.1088 46.2136 14.6875V44.0312C46.2136 44.61 45.7436 45.0801 45.1648 45.0801H40.5544C39.9756 45.0801 39.5056 44.61 39.5056 44.0312V14.6875C39.5057 14.1088 39.9757 13.6396 40.5544 13.6396H45.1648ZM27.2751 22.6221C27.8538 22.6221 28.3237 23.0913 28.324 23.6699V44.0312C28.324 44.61 27.8539 45.0791 27.2751 45.0791H22.6638C22.0852 45.0788 21.616 44.6099 21.616 44.0312V23.6699C21.6162 23.0915 22.0854 22.6223 22.6638 22.6221H27.2751Z" fill="#FFDE01"/>
</g>
</svg>
