<svg width="59" height="59" viewBox="0 0 59 59" fill="none" xmlns="http://www.w3.org/2000/svg">
<mask id="mask0_0_2186" style="mask-type:luminance" maskUnits="userSpaceOnUse" x="0" y="0" width="59" height="59">
<rect x="0.623169" y="0.411621" width="57.64" height="57.64" fill="white"/>
</mask>
<g mask="url(#mask0_0_2186)">
<path fill-rule="evenodd" clip-rule="evenodd" d="M37.7091 13.8637C37.7278 13.8964 37.7462 13.9307 37.7641 13.9662C37.745 13.9303 37.7258 13.8943 37.7062 13.8588C37.7074 13.8604 37.7082 13.862 37.7091 13.8637ZM43.0194 26.459C42.5236 24.4603 41.7875 22.3201 41.144 20.9683C40.3017 19.1984 40.2446 17.6132 40.0622 17.178C38.3365 13.0641 36.6316 9.91787 34.7716 10.4205C33.2556 10.83 29.3456 12.9006 29.1072 15.3603C29.0448 16.006 29.2101 16.9582 30.3527 17.8253C31.878 18.9839 32.7533 19.7231 33.3324 20.2119C33.8037 20.6103 34.0922 20.8539 34.368 21.0018C34.55 22.0055 34.4297 25.9441 34.0905 29.6943L33.9824 30.5145C33.709 30.5186 32.8235 29.9828 32.324 29.7041C30.2021 28.519 26.6772 26.5501 22.7663 29.6547C22.0187 29.622 20.4983 29.4998 19.4434 29.6543C18.7913 29.7499 17.3031 30.2427 16.1124 31.4372C15.6757 31.8757 15.1204 32.7841 14.9682 33.5483C14.8408 34.1883 14.7462 35.0207 14.7751 35.8441C14.776 35.8621 14.776 35.8797 14.7768 35.8973C14.7935 36.29 14.8384 36.6803 14.9229 37.0456C15.2665 38.5343 15.8981 40.5572 17.8091 42.2351C19.279 43.5256 21.0883 44.0168 23.187 43.6956C23.7102 43.6155 27.5664 44.3789 28.0834 44.4173C29.9164 44.5546 33.9245 43.3009 35.68 42.258C36.5259 41.7553 37.8342 41.7104 38.9339 41.5028C40.933 41.126 43.1986 40.6986 44.2832 38.3815C44.4436 38.0382 44.5472 37.6091 44.5995 37.0701C44.8439 34.5475 43.8752 29.9072 43.0194 26.459Z" fill="#FFDE01"/>
</g>
</svg>
