<svg width="58" height="58" viewBox="0 0 58 58" fill="none" xmlns="http://www.w3.org/2000/svg">
<mask id="mask0_0_2173" style="mask-type:luminance" maskUnits="userSpaceOnUse" x="0" y="0" width="58" height="58">
<rect x="0.196838" y="0.103516" width="57.64" height="57.64" fill="white"/>
</mask>
<g mask="url(#mask0_0_2173)">
<mask id="mask1_0_2173" style="mask-type:luminance" maskUnits="userSpaceOnUse" x="10" y="16" width="38" height="24">
<path fill-rule="evenodd" clip-rule="evenodd" d="M10.6777 16.3472H47.3539V39.315H10.6777V16.3472Z" fill="white"/>
</mask>
<g mask="url(#mask1_0_2173)">
<path fill-rule="evenodd" clip-rule="evenodd" d="M47.3539 20.9728L38.5071 16.3472C38.4912 16.5963 38.5032 16.8464 38.5032 17.0961C38.5031 17.6128 38.5032 18.1297 38.5032 18.6601C38.3386 18.6701 38.2214 18.6814 38.1039 18.6837C34.6856 18.7529 31.8001 19.7308 29.3957 21.537C27.6858 22.8218 26.3726 24.3219 25.1782 25.8851C24.0934 27.305 23.051 28.7431 21.9551 30.158C21.1113 31.2474 20.1721 32.289 18.9693 33.1841C17.5747 34.2217 15.9066 34.7443 13.9364 34.7311C12.8503 34.7239 11.764 34.7278 10.6777 34.7308V39.3138C11.7676 39.316 12.8577 39.3141 13.9476 39.315C16.9555 39.3172 19.6689 38.6725 22.0318 37.2551C23.5241 36.3597 24.7949 35.3029 25.7964 34.0938C27.1576 32.4504 28.3913 30.7483 29.7201 29.0896C30.6787 27.8931 31.6565 26.7025 32.7138 25.5549C33.4686 24.7356 34.4661 24.0759 35.7073 23.6646C36.5817 23.3746 37.4973 23.237 38.5032 23.2893C38.5032 24.0261 38.5093 24.7429 38.5002 25.4597L47.3539 20.9728Z" fill="#FFDE01"/>
</g>
<path fill-rule="evenodd" clip-rule="evenodd" d="M47.3594 37.0371L38.5076 32.5311C38.5026 33.1502 38.506 33.7694 38.5055 34.3886V34.7276C38.3232 34.7276 38.1916 34.7304 38.0606 34.727C36.3329 34.6829 34.9025 34.1492 33.6945 33.2443C32.5921 32.4183 31.7465 31.4502 30.9338 30.4633C30.8605 30.3741 30.7822 30.2872 30.689 30.1792C30.631 30.2394 30.5977 30.2682 30.5724 30.3009C29.5054 31.6703 28.4356 33.0389 27.3822 34.4142C27.3272 34.4859 27.3616 34.6464 27.4366 34.7158C28.0161 35.2499 28.5804 35.7971 29.2159 36.2928C31.2009 37.8419 33.576 38.8702 36.4405 39.196C37.1079 39.2721 37.7861 39.2956 38.4875 39.3452C38.4942 39.4477 38.5052 39.5447 38.5055 39.6419C38.5067 40.2609 38.511 40.88 38.5018 41.4992L47.3594 37.0371Z" fill="#FFDE01"/>
<path fill-rule="evenodd" clip-rule="evenodd" d="M14.9614 18.7187C13.5362 18.6661 12.1059 18.6815 10.6772 18.679V23.2727C11.7691 23.2756 12.8612 23.2812 13.9531 23.2706C15.8981 23.2515 17.535 23.7798 18.9176 24.7888C20.025 25.5968 20.8852 26.5444 21.7012 27.518C21.7818 27.614 21.866 27.7084 21.9538 27.8096C23.1008 26.3243 24.2199 24.875 25.3842 23.3671C24.7452 22.8185 24.0985 22.2073 23.3747 21.6527C21.0681 19.8857 18.2867 18.8411 14.9614 18.7187Z" fill="#FFDE01"/>
</g>
</svg>
