<svg width="58" height="58" viewBox="0 0 58 58" fill="none" xmlns="http://www.w3.org/2000/svg">
<mask id="mask0_82_830" style="mask-type:luminance" maskUnits="userSpaceOnUse" x="0" y="0" width="58" height="58">
<rect x="0.196899" y="0.175903" width="57.64" height="57.64" fill="white"/>
</mask>
<g mask="url(#mask0_82_830)">
<mask id="mask1_82_830" style="mask-type:luminance" maskUnits="userSpaceOnUse" x="10" y="16" width="38" height="24">
<path fill-rule="evenodd" clip-rule="evenodd" d="M10.6777 16.4197H47.3539V39.3875H10.6777V16.4197Z" fill="white"/>
</mask>
<g mask="url(#mask1_82_830)">
<path fill-rule="evenodd" clip-rule="evenodd" d="M47.3539 21.0453L38.5071 16.4197C38.4912 16.6688 38.5032 16.9189 38.5032 17.1686C38.5031 17.6853 38.5032 18.2022 38.5032 18.7326C38.3386 18.7426 38.2214 18.7539 38.1039 18.7562C34.6856 18.8255 31.8001 19.8033 29.3957 21.6096C27.6858 22.8943 26.3726 24.3944 25.1782 25.9576C24.0934 27.3775 23.051 28.8156 21.9551 30.2306C21.1113 31.3199 20.1721 32.3615 18.9693 33.2566C17.5747 34.2942 15.9066 34.8168 13.9364 34.8036C12.8503 34.7964 11.764 34.8003 10.6777 34.8033V39.3863C11.7676 39.3885 12.8577 39.3866 13.9476 39.3875C16.9555 39.3897 19.6689 38.745 22.0318 37.3276C23.5241 36.4322 24.7949 35.3754 25.7964 34.1663C27.1576 32.5229 28.3913 30.8208 29.7201 29.1621C30.6787 27.9656 31.6565 26.775 32.7138 25.6274C33.4686 24.8082 34.4661 24.1484 35.7073 23.7371C36.5817 23.4471 37.4973 23.3095 38.5032 23.3618C38.5032 24.0986 38.5093 24.8155 38.5002 25.5322L47.3539 21.0453Z" fill="#171E28"/>
</g>
<path fill-rule="evenodd" clip-rule="evenodd" d="M47.3595 37.1095L38.5076 32.6035C38.5027 33.2226 38.5061 33.8418 38.5055 34.461V34.8C38.3232 34.8 38.1917 34.8027 38.0606 34.7994C36.3329 34.7553 34.9025 34.2215 33.6945 33.3167C32.5921 32.4907 31.7465 31.5226 30.9339 30.5357C30.8606 30.4465 30.7823 30.3596 30.6891 30.2516C30.6311 30.3118 30.5978 30.3406 30.5724 30.3733C29.5054 31.7426 28.4357 33.1112 27.3823 34.4866C27.3272 34.5583 27.3616 34.7188 27.4366 34.7881C28.0161 35.3223 28.5805 35.8695 29.2159 36.3651C31.2009 37.9143 33.576 38.9426 36.4406 39.2684C37.108 39.3445 37.7862 39.3679 38.4875 39.4176C38.4942 39.52 38.5053 39.6171 38.5055 39.7143C38.5067 40.3333 38.511 40.9524 38.5019 41.5716L47.3595 37.1095Z" fill="#171E28"/>
<path fill-rule="evenodd" clip-rule="evenodd" d="M14.9614 18.791C13.5362 18.7385 12.1059 18.7538 10.6772 18.7513V23.345C11.7691 23.3479 12.8612 23.3535 13.9531 23.3429C15.8981 23.3238 17.535 23.8521 18.9176 24.8611C20.025 25.6692 20.8852 26.6167 21.7012 27.5903C21.7818 27.6863 21.866 27.7807 21.9538 27.8819C23.1008 26.3966 24.2199 24.9474 25.3842 23.4394C24.7452 22.8908 24.0985 22.2796 23.3747 21.725C21.0681 19.958 18.2867 18.9135 14.9614 18.791Z" fill="#171E28"/>
</g>
</svg>
