<svg width="14" height="77" viewBox="0 0 14 77" fill="none" xmlns="http://www.w3.org/2000/svg">
<g clip-path="url(#clip0_0_2457)">
<path d="M0.0471219 63.7763L0.0471224 74.6308C0.0471224 75.6682 0.896927 76.5083 1.94539 76.5083C2.21836 76.5083 2.47734 76.4515 2.71132 76.3481C2.8283 76.2819 2.94455 76.2156 3.06154 76.1487C3.79583 75.7286 4.5235 75.3137 5.10843 74.9788L5.10843 73.5337C5.10843 73.5337 4.52423 73.8671 3.80834 74.2755C3.34039 74.5427 2.81506 74.8434 2.36036 75.1033C2.36036 75.1033 2.36036 75.104 2.35962 75.1033C2.28825 75.144 2.21909 75.1841 2.15214 75.2219C2.15214 75.2219 2.15214 75.2227 2.1514 75.2219C2.08665 75.2452 2.01823 75.2569 1.94539 75.2569C1.5959 75.2569 1.3119 74.9766 1.3119 74.6308L1.3119 63.7763C1.3119 63.4305 1.5959 63.1503 1.94539 63.1503C2.05502 63.1503 2.15729 63.1772 2.24705 63.226C2.25882 63.2325 2.27133 63.2398 2.2831 63.2471C2.83198 63.5601 3.42868 63.9008 3.81054 64.1185C3.82158 64.125 3.83188 64.1316 3.84218 64.1374L3.84365 64.136L3.84365 62.6923C3.56038 62.5307 3.25063 62.3538 2.92836 62.1696C2.90261 62.1544 2.87613 62.1391 2.8489 62.1245C2.58035 61.9796 2.27207 61.8981 1.94465 61.8981C0.896927 61.8981 0.0463861 62.7389 0.0463862 63.7763L0.0471219 63.7763Z" fill="white"/>
<path d="M6.36819 68.4734L7.63222 69.1955L3.8379 71.3628L3.8379 65.5818L3.83717 65.5818L2.57165 64.8589L2.57166 73.5322L10.1632 69.1955L6.36819 67.0283L6.36819 64.136L5.10341 63.413L5.10341 69.1955L6.36819 68.4734Z" fill="white"/>
<path d="M10.202 67.7684C10.77 68.0931 11.3071 68.3996 11.736 68.6442C11.9325 68.7497 12.0664 68.9565 12.0664 69.1938C12.0664 69.4312 11.9325 69.6379 11.736 69.7435L10.202 70.6207L7.63856 72.0847L6.37305 72.8076L6.37305 74.2534L7.63856 73.5298C9.17851 72.6504 10.7964 71.7265 12.3953 70.8144C12.4033 70.8093 12.4107 70.8049 12.4188 70.8005C12.9669 70.4707 13.3326 69.8745 13.3326 69.1938C13.3326 68.5131 12.9684 67.9213 12.4232 67.5908C12.4195 67.5893 12.4151 67.5864 12.4122 67.5842C10.8524 66.6932 9.05931 65.6681 7.63929 64.8571L7.63929 66.3037C8.37947 66.7266 9.32713 67.2683 10.2027 67.7677L10.202 67.7684Z" fill="white"/>
</g>
<path d="M6.25906 52.669L10.0274 53.306C10.4953 54.7169 10.7292 55.9047 10.7292 56.8692C10.7292 57.8482 10.4305 58.6472 9.83305 59.2663C9.22838 59.8782 8.46176 60.1841 7.53317 60.1841C6.19428 60.1841 5.11452 59.7558 4.29391 58.8992C3.47329 58.0426 3.06299 56.916 3.06299 55.5195C3.06299 54.6845 3.18176 53.7847 3.41931 52.8202L4.82299 53.36C4.64303 54.4254 4.55305 55.1956 4.55305 55.6707C4.55305 56.5273 4.80499 57.2184 5.30888 57.7438C5.80556 58.2693 6.46421 58.5321 7.28483 58.5321C7.86789 58.5321 8.33939 58.3557 8.6993 58.003C9.05202 57.6431 9.22838 57.1716 9.22838 56.5885C9.22838 56.027 9.13481 55.3576 8.94765 54.5802L7.65194 54.3534L7.65194 56.8476L6.25906 56.5993L6.25906 52.669Z" fill="white"/>
<path d="M8.17023 50.3258L3.22495 52.4206L3.22495 50.693L6.5182 49.2569L3.22495 46.6115L3.22495 44.8299L8.17023 48.6738L10.5673 49.1057L10.5673 50.7577L8.17023 50.3258Z" fill="white"/>
<path d="M6.64777 38.3796L10.5673 40.9602L10.5673 42.2559L6.64777 43.4545L10.5673 44.4155L10.5673 45.9379L3.22495 44.2211L3.22495 42.7958L8.64532 41.3166L3.22495 37.8829L3.22495 36.4361L10.5673 37.3107L10.5673 38.8331L6.64777 38.3796Z" fill="white"/>
<path d="M10.5673 32.1429L10.5673 33.6438L3.22495 35.7385L3.22495 33.9677L8.47256 32.5856L3.22495 29.26L3.22495 27.4676L10.5673 32.1429Z" fill="white"/>
<path d="M6.19427 25.7403L6.19427 22.3283L7.59795 22.5767L7.59795 25.9887L9.1528 26.2586L9.1528 22.3823L10.5673 22.6306L10.5673 28.0726L3.22495 26.7769L3.22495 21.3349L4.63943 21.5833L4.63943 25.4596L6.19427 25.7403Z" fill="white"/>
<path d="M8.32139 18.1617L8.32139 19.5222L10.5673 19.9109L10.5673 21.4766L3.22495 20.1917C3.18176 19.0039 3.16016 18.0574 3.16016 17.3519C3.16016 16.5313 3.34372 15.8906 3.71084 15.43C4.07796 14.9693 4.59984 14.7389 5.27648 14.7389C5.86675 14.7389 6.39223 14.9009 6.85292 15.2248C7.31362 15.5487 7.67714 15.995 7.94348 16.5637L10.5673 15.1708L10.5673 17.0496L8.32139 18.1617ZM6.9609 19.2847L6.9609 17.8918C6.9609 17.4527 6.82413 17.0784 6.55059 16.7688C6.27705 16.4521 5.93153 16.2938 5.51403 16.2938C4.87337 16.2938 4.55305 16.7149 4.55305 17.5571L4.55305 18.8528L6.9609 19.2847Z" fill="white"/>
<path d="M3.61366 7.77205L4.99575 8.39831C4.67902 9.38448 4.52065 10.1979 4.52065 10.8386C4.52065 11.2489 4.59624 11.5728 4.7474 11.8103C4.89857 12.0407 5.10732 12.1559 5.37366 12.1559C5.43845 12.1559 5.49603 12.1523 5.54642 12.1451C5.59681 12.1307 5.6436 12.1055 5.68679 12.0695C5.72278 12.0335 5.75877 12.0011 5.79476 11.9723C5.82356 11.9363 5.85235 11.8859 5.88114 11.8211C5.90994 11.7491 5.93513 11.688 5.95673 11.6376C5.97112 11.5872 5.99272 11.5116 6.02151 11.4108C6.04311 11.31 6.0647 11.2273 6.0863 11.1625C6.10069 11.0905 6.12229 10.9897 6.15108 10.8601C6.17988 10.7234 6.20507 10.6118 6.22667 10.5254C6.39943 9.7696 6.61178 9.22252 6.86372 8.88419C7.11566 8.53867 7.52957 8.36591 8.10544 8.36591C8.96924 8.36591 9.62429 8.67544 10.0706 9.2945C10.5097 9.91356 10.7292 10.7594 10.7292 11.8319C10.7292 12.8901 10.5205 13.8979 10.103 14.8552L8.66691 14.2398C9.07002 13.304 9.27877 12.4042 9.29317 11.5404C9.29317 11.0653 9.22478 10.6946 9.08801 10.4282C8.94405 10.1619 8.73529 10.0287 8.46176 10.0287C8.36818 10.0287 8.2854 10.0467 8.21341 10.0827C8.13423 10.1115 8.06585 10.1655 8.00826 10.2447C7.95067 10.3167 7.90388 10.3887 7.86789 10.4606C7.8247 10.5326 7.78511 10.637 7.74912 10.7738C7.71313 10.9033 7.68433 11.0113 7.66274 11.0977C7.64114 11.1841 7.61595 11.3136 7.58716 11.4864C7.55116 11.652 7.52237 11.7779 7.50078 11.8643C7.34241 12.5698 7.13366 13.0808 6.87452 13.3976C6.61538 13.7071 6.23027 13.8619 5.71918 13.8619C4.94176 13.8619 4.3155 13.5523 3.84041 12.9333C3.36532 12.3142 3.12777 11.5044 3.12777 10.5038C3.12777 10.0431 3.17816 9.55724 3.27894 9.04616C3.37252 8.52788 3.48409 8.10318 3.61366 7.77205Z" fill="white"/>
<path d="M6.19427 5.40469L6.19427 1.99267L7.59795 2.24101L7.59795 5.65303L9.1528 5.92297L9.1528 2.04666L10.5673 2.295L10.5673 7.73696L3.22495 6.44126L3.22495 0.999294L4.63943 1.24763L4.63943 5.12395L6.19427 5.40469Z" fill="white"/>
<defs>
<clipPath id="clip0_0_2457">
<rect width="14.6102" height="13.2856" fill="white" transform="translate(0.0466309 76.5088) rotate(-90)"/>
</clipPath>
</defs>
</svg>
