<svg width="59" height="59" viewBox="0 0 59 59" fill="none" xmlns="http://www.w3.org/2000/svg">
<mask id="mask0_82_818" style="mask-type:luminance" maskUnits="userSpaceOnUse" x="0" y="0" width="59" height="59">
<rect x="0.623169" y="0.611938" width="57.64" height="57.64" fill="white"/>
</mask>
<g mask="url(#mask0_82_818)">
<path d="M18.3347 27.1864C18.9135 27.1864 19.3826 27.6555 19.3826 28.2343V44.1034C19.3826 44.6822 18.9135 45.1522 18.3347 45.1522H13.7234C13.1447 45.1521 12.6755 44.6821 12.6755 44.1034V28.2343C12.6755 27.6555 13.1447 27.1865 13.7234 27.1864H18.3347ZM36.2205 18.203C36.7991 18.2031 37.2681 18.6723 37.2683 19.2509V44.1034C37.2683 44.6821 36.7992 45.1522 36.2205 45.1522H31.6091C31.0303 45.1522 30.5613 44.6822 30.5613 44.1034V19.2509C30.5615 18.6723 31.0305 18.203 31.6091 18.203H36.2205ZM45.1648 13.7118C45.7435 13.7118 46.2135 14.1809 46.2136 14.7596V44.1034C46.2136 44.6822 45.7436 45.1522 45.1648 45.1522H40.5544C39.9756 45.1522 39.5056 44.6822 39.5056 44.1034V14.7596C39.5057 14.1809 39.9757 13.7118 40.5544 13.7118H45.1648ZM27.2751 22.6942C27.8538 22.6942 28.3237 23.1635 28.324 23.7421V44.1034C28.324 44.6822 27.8539 45.1512 27.2751 45.1512H22.6638C22.0852 45.151 21.616 44.682 21.616 44.1034V23.7421C21.6162 23.1636 22.0854 22.6945 22.6638 22.6942H27.2751Z" fill="#171E28"/>
</g>
</svg>
