<svg width="59" height="59" viewBox="0 0 59 59" fill="none" xmlns="http://www.w3.org/2000/svg">
<mask id="mask0_82_843" style="mask-type:luminance" maskUnits="userSpaceOnUse" x="0" y="0" width="59" height="59">
<rect x="0.623169" y="0.483887" width="57.64" height="57.64" fill="white"/>
</mask>
<g mask="url(#mask0_82_843)">
<path fill-rule="evenodd" clip-rule="evenodd" d="M37.7091 13.9357C37.7278 13.9684 37.7462 14.0027 37.7641 14.0383C37.745 14.0023 37.7258 13.9663 37.7062 13.9308C37.7074 13.9324 37.7082 13.9341 37.7091 13.9357ZM43.0194 26.531C42.5236 24.5323 41.7875 22.3922 41.144 21.0403C40.3017 19.2704 40.2446 17.6853 40.0622 17.2501C38.3365 13.1361 36.6316 9.98989 34.7716 10.4925C33.2556 10.902 29.3456 12.9727 29.1072 15.4324C29.0448 16.078 29.2101 17.0302 30.3527 17.8974C31.878 19.0559 32.7533 19.7952 33.3324 20.2839C33.8037 20.6823 34.0922 20.9259 34.368 21.0738C34.55 22.0775 34.4297 26.0161 34.0905 29.7663L33.9824 30.5865C33.709 30.5906 32.8235 30.0548 32.324 29.7761C30.2021 28.591 26.6772 26.6221 22.7663 29.7267C22.0187 29.694 20.4983 29.5718 19.4434 29.7263C18.7913 29.8219 17.3031 30.3147 16.1124 31.5092C15.6757 31.9477 15.1204 32.8562 14.9682 33.6203C14.8408 34.2603 14.7462 35.0927 14.7751 35.9162C14.776 35.9342 14.776 35.9517 14.7768 35.9693C14.7935 36.362 14.8384 36.7523 14.9229 37.1176C15.2665 38.6063 15.8981 40.6292 17.8091 42.3071C19.279 43.5977 21.0883 44.0889 23.187 43.7677C23.7102 43.6876 27.5664 44.4509 28.0834 44.4893C29.9164 44.6266 33.9245 43.3729 35.68 42.33C36.5259 41.8274 37.8342 41.7824 38.9339 41.5748C40.933 41.198 43.1986 40.7706 44.2832 38.4535C44.4436 38.1102 44.5472 37.6811 44.5995 37.1421C44.8439 34.6195 43.8752 29.9792 43.0194 26.531Z" fill="#171E28"/>
</g>
</svg>
