<svg width="17" height="18" viewBox="0 0 17 18" fill="none" xmlns="http://www.w3.org/2000/svg">
<path d="M14.4375 9.00003H5.71875V5.37543C5.71875 3.98324 6.8332 2.8266 8.22539 2.81253C9.63164 2.79847 10.7812 3.94105 10.7812 5.34378V5.90628C10.7812 6.37386 11.1574 6.75003 11.625 6.75003H12.75C13.2176 6.75003 13.5938 6.37386 13.5938 5.90628V5.34378C13.5938 2.39066 11.1855 -0.0105123 8.23242 3.4612e-05C5.2793 0.0105815 2.90625 2.44339 2.90625 5.39652V9.00003H2.0625C1.13086 9.00003 0.375 9.75589 0.375 10.6875V16.3125C0.375 17.2442 1.13086 18 2.0625 18H14.4375C15.3691 18 16.125 17.2442 16.125 16.3125V10.6875C16.125 9.75589 15.3691 9.00003 14.4375 9.00003ZM9.65625 14.3438C9.65625 15.1207 9.02695 15.75 8.25 15.75C7.47305 15.75 6.84375 15.1207 6.84375 14.3438V12.6563C6.84375 11.8793 7.47305 11.25 8.25 11.25C9.02695 11.25 9.65625 11.8793 9.65625 12.6563V14.3438Z" fill="#171E28"/>
</svg>
